<?xml version="1.0" encoding="utf-8"?>
<!-- Generator: Adobe Illustrator 22.0.1, SVG Export Plug-In . SVG Version: 6.00 Build 0)  -->
<svg version="1.1" id="layer" xmlns="http://www.w3.org/2000/svg" xmlns:xlink="http://www.w3.org/1999/xlink" x="0px" y="0px"
	 width="512px" height="512px" viewBox="0 0 512 512" style="enable-background:new 0 0 512 512;" xml:space="preserve">
<style type="text/css">
	.st0{fill:#A7100C;}
	.st1{fill:none;}
</style>
<g>
	<path class="st0" d="M0.1,409.3v72.8h154.3c41.8,0,85.1-7.9,108.2-18.7c52.6-25.2,79.3-96.6,79.3-210.6c0-94.5-19.5-161.5-57-194.7
		c-22.4-20.9-58.4-32.4-101.7-32.4H0.1v72.8h29.6v310.8H0.1z M143.6,98.5c33.2-0.7,46.9,2.9,54.8,13.7c13,14.4,18.7,53.4,18.7,125.5
		c0,142.1-10.1,170.2-61.3,170.2c0,0-11.5,0-12.3,0V98.5z"/>
	<g>
		<polygon class="st0" points="363.5,407.9 363.5,480.7 512.1,480.7 512.1,407.9 493.3,407.9 493.3,148.3 363.5,148.3 363.5,220.4 
			382.3,220.4 382.3,407.9 		"/>
		<path class="st0" d="M499.8,66.8c0-31.7-26-53.4-67.1-53.4c-43.3,0-69.2,20.9-69.2,54.1c0,33.2,26.7,53.4,68.5,53.4
			S499.8,100,499.8,66.8z"/>
	</g>
</g>
<rect x="0.1" class="st1" width="512" height="512"/>
</svg>
