<?xml version="1.0" encoding="utf-8"?>
<!-- Generator: Adobe Illustrator 22.0.1, SVG Export Plug-In . SVG Version: 6.00 Build 0)  -->
<svg version="1.1" id="layer" xmlns="http://www.w3.org/2000/svg" xmlns:xlink="http://www.w3.org/1999/xlink" x="0px" y="0px"
	 width="512px" height="512px" viewBox="0 0 512 512" style="enable-background:new 0 0 512 512;" xml:space="preserve">
<style type="text/css">
	.st0{fill:#E30613;}
</style>
<g>
	<path class="st0" d="M16.8,394.6H2.9L0,404.9h233.9l11.8-84.1h-10.3c-11.1,58.8-31,71-43.9,73.8h-65.2l19.6-138.3h45.6
		c10.3,0,19.3,8.6,17.5,20.3l-2.9,19.6h8.6l13.9-88.8h-10.3l-3.2,18.2c-1.1,17.5-12.8,20.3-25.3,20.3h-43.9c0,0,20-137.3,20.7-137.3
		h64.2c17.5,0,18.9,23.5,18.9,41.7v7.8H260l8.9-61.7H42.4L41,108.3c25.3,0,31.4,0,31.4,10.3L34.2,384.3
		C34.2,387.1,28.5,394.6,16.8,394.6z"/>
	<path class="st0" d="M260.3,394.2h-13.9l-2.5,10.3h61.3l1.4-10.3h-7.1c-13.5,0-13.5-3.9-6.1-17.5l57-78.1l18.5,78.1
		c2.1,7.5,5.7,17.8-13.9,17.8h-7.5l-1.4,10.3l141.5-0.4l1.8-10.3h-6.1c-13.5,0-18.2-8.6-21-17.5L420,201.7l55.6-78.4
		c5-7.1,7.8-15,22.5-15h11.1l2.9-11.8h-61.3l-1.4,11.8h5.7c11.8,0,8.9,10.3,4.6,13.5l-45.3,64.9L399,126.5
		c-1.8-7.8-3.2-18.2,8.6-18.2H420l1.4-11.8H277l-1.4,11.8h7.5c18.2,0,22.5,10.3,23.9,18.2L346.6,283l-65.2,93.8
		C275.6,383.9,268.5,394.2,260.3,394.2z"/>
</g>
</svg>
