<?xml version="1.0" encoding="utf-8"?>
<!-- Generator: Adobe Illustrator 22.0.1, SVG Export Plug-In . SVG Version: 6.00 Build 0)  -->
<svg version="1.1" id="layer" xmlns="http://www.w3.org/2000/svg" xmlns:xlink="http://www.w3.org/1999/xlink" x="0px" y="0px"
	 width="512px" height="512px" viewBox="0 0 512 512" style="enable-background:new 0 0 512 512;" xml:space="preserve">
<style type="text/css">
	.st0{fill:#FFED00;}
	.st1{fill:#E30613;}
	.st2{fill:#FFFFFF;}
</style>
<path d="M253.2,263.8l-0.4,3.1l11.8-1.7c-1.3-0.9-2.2-1.7-3.1-2.2C252.7,256,253.6,260.8,253.2,263.8 M298,276.5
	c2.2,3.1,7.8,8.3,12.2,11.8c0,0,0.9-5.7,1.3-9.2C311.6,279.1,300.7,276.9,298,276.5 M512,153.6c0,24.8-19.6,53.2-61.9,71
	c-18.7,7.8-39.2,12.6-59.7,15.7c3.5,0.9,7.4,2.6,10.9,4.4c7.4,4.8,12.2,9.2,13.9,14.4c6.1,20-9.2,41-23.1,57.5
	c-3.9,5.2-18.7,20-20.9,22.2c-7.8,7.4-16.1,14.8-24.4,22.2c-9.2,7.8-19.6,16.1-30.1,24.4c-30.1,23.1-62.7,50.5-111.1,75.4
	c33.1-29.2,58-51.9,74.5-68c1.7-1.7,3.5-3.5,5.7-5.2c3.9-3.9,7.8-8.3,11.8-12.2c7.4-8.3,14.4-16.6,20.5-24.8
	c3.1-3.5,5.7-7.4,8.3-10.9c10.5-14.4,13.5-25.3,13.5-34c0-2.6-0.4-5.2-0.9-7.8c-0.9-3.9-2.6-10-3.1-10c-6.1-5.2-13.1-6.5-15.3-7
	c-2.6,10.5-5.7,26.1-6.5,31.4c-1.3,7,0.4,7,3.5,6.1c3.9-0.9,6.1,1.3,3.5,4.4c-8.3,9.6-12.2,7.4-13.1,0.4c-0.4-3.5,1.7-24.8,1.7-24.8
	c-7.8,13.9-23.1,41-25.3,48.4c-3.1,9.6,0.9,8.7,4.8,6.5c4.4-2.2,12.6,0,0.9,9.6c-11.8,9.6-22.7,4.8-17-12.2
	c4.8-15.3,26.6-51.4,29.6-55.8c-2.2-1.7-7-5.2-13.1-13.1c-6.5-8.3-7.4,2.2-8.3,5.7c-0.4,3.5-2.2,17.4,3.9,13.1
	c6.1-4.8,7.4,1.3,0.9,9.2c-6.5,8.3-10.5,4.8-10.5-1.7c0-3.5,0.4-17.4,0.4-26.1c-1.3,0.9-3.1,1.3-4.4,2.2c-3.1,2.2-26.1,81-27.9,88.9
	c-1.7,7.4-14.4-0.9-12.6-13.9c1.7-13.1,8.7-11.3,9.6-4.8c2.6-5.2,18.7-58.8,21.8-78.4l-11.3,1.7c-1.7,11.8-3.9,23.1-5.7,34.9
	c-1.3,7.4-4.4,9.2-8.7,1.3c-4.4-7.8-0.4-10.9,1.7-7.8s4.8,0.4,4.8-1.7c0.4-2.2,2.2-9.6,3.5-25.3l-5.2,0.9
	c-1.3,2.6-24.4,55.8-33.1,62.7c-8.7,7-14.8-3.9-13.1-15.7c3.5-21.4,10-9.2,10.9-0.4c5.7-7,26.1-42.7,31.4-56.2l10-1.7
	c0.9-17.9,2.6-16.6,6.5-17c3.9-2.6,8.7-7.8,12.6-14.8l-7-2.2c-3.1,3.9-10.9,14.4-13.5,16.6c-11.8,12.2-25.3,30.9-25.7,34
	c-10.9-6.5-21.8-9.2-34-8.7c-8.7,0.4-40.1,0-53.6-27c-10,3.5-29.2,4.8-39.7,4.8c-29.6,0-67.1-6.5-85.8-34C2.6,212,0,203.3,0,195
	c1.3-30.1,26.1-44,41.8-49.2c-2.2-5.7-3.1-11.8-3.5-17.9c0-11.8,4.8-21.4,13.1-27.9s19.6-9.6,32.7-9.6c30.9,0,71.9,18.3,106.8,61
	c2.6-0.4,4.8-1.3,7-1.7c-4.4-16.1,10-53.6,36.2-50.1l0,0c4.8,0.9,9.2,4.8,10,9.6c0.9,6.1-3.5,12.2-10,13.1
	c-7,0.9-13.1-4.4-13.1-11.3c-17.4,5.2-19.2,21.8-16.1,36.6c2.6-0.4,4.4-0.9,5.2-1.3l3.1-8.3c1.3-5.2,4.4-9.6,25.7-3.5
	c21.4,6.1,24,7.4,20,15.7c-4.4,8.3-0.9,10,2.2,12.2c1.3,0.9,2.6,3.1,4.4,6.1c41.4-74.1,108.9-117.2,156-117.2
	c14.8,0,27.9,4.4,37,13.5s14.4,23.5,14.4,42.3v0.4C502,115.7,512,136.6,512,153.6"/>
<path class="st0" d="M273.6,205l-2.6,2.6c-1.3,6.5-3.9,13.9-10,22.7c2.6,0.9,8.7,2.2,12.2,3.1l21.4-29.6L273.6,205z M435.3,99.6
	l-66.2,3.5L339,144.4c30.1-19.2,63.6-33.1,91.5-37.9L435.3,99.6z M271.9,200.7L271.9,200.7c25.3-25.3,40.5-37.5,53.6-47.1l-47.5,2.6
	c-2.2,3.1-9.2,15.7-10.5,17.9C272.3,186.3,271.9,194.1,271.9,200.7 M297.6,375.4c-5.7,6.1-11.3,11.8-17,17.4
	c2.6,6.5,12.6,8.3,18.3,6.5c0,0,10.9-7.8,17.9-13.9C310.7,386.3,302,382.4,297.6,375.4 M331.2,332.3c-3.9,6.5-7.8,11.3-13.1,18.3
	c7,10.9,17,12.6,28.8,10c8.3-7,16.6-14.4,24.4-21.8C363.4,342.3,346.9,345.8,331.2,332.3 M253.6,251.2c3.5-2.2,8.3-7.8,12.6-14.8
	c0,0-3.5-0.9-7-2.2c-3.1,4.8-6.5,8.7-10.5,13.1L253.6,251.2z M310.3,242.1c-7.8,13.1-17.4,23.1-20.9,25.3
	c10.5,5.7,20.9,8.3,29.6,3.1c6.5-3.9,17.9-14.8,26.1-27C332.9,243.4,321.6,242.9,310.3,242.1 M335.5,288.2
	c2.6,6.5,3.5,12.2,3.9,17.4c18.3,5.7,62.3-10.5,77.6-34.9c0.9-13.5-4.8-19.2-15.3-26.1C395.7,254.3,366,279.5,335.5,288.2
	 M467.6,97.4c-1.3-11.8-5.2-20.5-10.5-27l-20.9,28.8L467.6,97.4z M400.9,58.2c-24.8,6.1-54,21.8-80.2,46.6l48.4-2.6L400.9,58.2z
	 M362.5,200.7L334.7,239c14.8,0.4,38.3-0.4,63.6-4.4l27-37L362.5,200.7z M398.7,149.7l-64.9,3.5c-0.9,0.4-1.7,1.3-2.6,1.7
	l-35.3,48.4l66.2-3.5L398.7,149.7z M427,111.3l-27.5,37.9l62.7-3.1l21.4-29.6C468.4,108.7,451.9,107,427,111.3 M506.3,144l-43.6,2.2
	l-36.6,50.1l63.2-3.5C500.2,181.1,511.1,164.9,506.3,144 M99.8,218.1l-42.7,27.5c12.6,3.9,51,6.5,73.6-0.4
	c-0.4-0.9-3.5-10.9-3.5-16.1L99.8,218.1z M121.1,134.4c1.3-2.2,3.1-3.5,5.7-4.4c5.7-2.2,11.8-3.1,17.9-2.2l9.2-6.1
	c-16.1-12.2-31.8-20-46.6-24l-28.8,18.7L121.1,134.4z M77.6,116.6L51,105.2c-4.8,4.8-12.2,14.8-7.8,34L77.6,116.6z M156.4,154
	c4.4,3.9,5.7,5.2,5.7,5.7c3.1-1.3,6.1-2.2,9.2-3.1L141.6,144c-1.3,4.8-5.7,7.8-10.9,8.3c-5.2,0.4-9.6-3.1-11.3-7.8l-8.7,5.7
	c7.4,2.6,19.6,8.7,25.3,11.8C145.1,154,149.9,148.4,156.4,154 M44.9,148.8l40.5,17l20.5-13.5C92.4,147.9,68.8,142.3,44.9,148.8
	 M85.8,166.2l-43.1,27.9l57.1,23.1l29.2-18.7l0.4-1.7c-7-2.6-11.8-7.4-13.9-10.5c-0.9-1.3-0.4-3.9,2.2-7L85.8,166.2z M6.1,180.2
	C0,195.9,5.2,208.5,9.2,215l32.2-20.9L6.1,180.2z M240.5,217.2l-9.2-7l0.9,10.9c-7.8,1.3-15.3-4.4-16.1-12.2
	c-0.9-7.8,4.4-14.8,12.2-16.1c7.8-1.3,15.3,4.4,16.1,12.2C245.8,209.8,244,214.2,240.5,217.2 M230.9,188.5c-10,0-18.3,8.3-18.3,18.3
	c0,10,8.3,18.3,18.3,18.3c10,0,18.3-8.3,18.3-18.3C249.2,196.7,241,188.5,230.9,188.5 M185.2,240.3l-9.6-6.1l1.7,10.5
	c-7.8,1.7-15.3-3.5-17-10.9c-1.7-7.8,3.5-15.3,11.3-17c7.8-1.7,15.3,3.5,17,10.9C190,232.5,188.2,237.3,185.2,240.3 M173.4,212.4
	c-10.5,0.4-18.3,9.2-17.9,19.6c0.9,10.5,9.6,18.3,20,17C200,247.3,197.8,211.1,173.4,212.4"/>
<path class="st1" d="M337.7,145.3l30.5-42.3l-48.4,2.6c-15.7,14.8-29.6,31.8-41.4,50.1l47.9-2.6
	C329.9,150.1,333.8,147.9,337.7,145.3 M431,106.5c12.2-2.2,24.8-2.2,37.5,0c0-3.1,0-5.7-0.4-8.7l-31.8,1.7L431,106.5z M435.7,99.1
	l21.4-29.2c-0.4-0.4-14.8-20.9-55.3-11.8l-32.2,44.4L435.7,99.1z M399.1,149.2l27.5-37.5c-33.1,7-64.9,22.7-91.9,41L399.1,149.2z
	 M462.3,146.6l-63.2,3.1l-36.6,50.1l62.7-3.5L462.3,146.6z M398.7,234.2c50.5-8.7,75.8-26.1,90.2-40.1l-63.2,3.5L398.7,234.2z
	 M333.8,239l27.9-38.3l-66.2,3.5l-21.4,29.6C280.2,235.1,313.7,238.6,333.8,239 M274.1,204.6l21.4-1.3l34.9-47.9
	C311.1,169.3,292.8,185.4,274.1,204.6 M506.3,143.6c-2.6-10.9-10-20.9-22.2-27l-21.4,29.2L506.3,143.6z M78,116.6l-34.9,22.7
	c0.4,1.7,0.9,3.1,1.3,4.8c7.8-2.2,15.7-3.1,23.5-3.1c13.1,0,27.5,2.6,42.7,8.3l9.2-5.7c-0.4-0.9-0.4-1.7-0.4-3.1
	c0-2.2,0.4-4.4,1.7-6.1L78,116.6z M106.8,97.8c-8.3-2.2-37-8.7-55.3,7l27,11.3L106.8,97.8z M179.5,154c1.7-0.4,3.9-0.9,5.7-1.7
	c-12.2-14.4-21.4-22.7-31.4-30.1l-9.2,5.7C159,130.5,172.1,141,179.5,154 M171.7,155.8c-8.3-13.9-15.7-22.7-30.5-20.9
	c0.9,1.3,2.2,4.4,0.9,8.3L171.7,155.8z M41.8,194.6L9.2,215.5c10,16.1,28.8,25.3,47.1,29.6l42.7-27.5L41.8,194.6L41.8,194.6z
	 M85.4,166.2l-41-17.4c-9.2,2.6-28.8,10.5-37.9,30.9l35.7,14.4L85.4,166.2z M100.2,217.7l26.6,10.9c-0.9-8.3-0.4-17.9,1.7-29.2
	L100.2,217.7z M106.8,152.7l-20.5,13.5l31.4,13.1c3.1-4.4,10.5-10.5,15.3-14.4C124.2,159.7,113.3,154.9,106.8,152.7"/>
<path class="st2" d="M155.1,230.7c0-9.6,7-17.9,17-19.2c10-0.9,17.4,4.4,20.5,11.3c-0.4-3.9-0.9-7.8-2.2-11.8
	c-5.2-18.3-19.2-30.5-32.2-26.6c-13.5,3.9-19.2,21.8-13.9,40.5c3.1,11.3,10.5,17.9,18.7,21.4C158.2,242.9,155.1,236.8,155.1,230.7
	 M232.3,161c-13.9-1.3-26.1,14.8-25.7,34c0.4,10.9,3.5,18.7,8.7,23.5c-2.6-3.1-3.9-7.4-3.9-11.3c0-9.2,7.4-18.7,18.7-19.2
	c10.5-0.4,19.2,7,20.5,16.6c0.4,2.6,0.4,5.2-0.4,7.4c1.7-3.9,2.6-8.7,3.1-14.8C254.5,178,245.8,161.9,232.3,161 M182.1,256.9
	c33.1,25.7,39.2,7.8,42.3-18.3C210.5,259.1,201.7,257.3,182.1,256.9"/>
</svg>
