<?xml version="1.0" encoding="utf-8"?>
<!-- Generator: Adobe Illustrator 19.0.0, SVG Export Plug-In . SVG Version: 6.00 Build 0)  -->
<svg version="1.1" id="layer" xmlns="http://www.w3.org/2000/svg" xmlns:xlink="http://www.w3.org/1999/xlink" x="0px" y="0px"
	 viewBox="-153 -46 652 652" style="enable-background:new -153 -46 652 652;" xml:space="preserve">
<style type="text/css">
	.st0{fill:#E30613;}
	.st1{fill:#FFED00;}
	.st2{fill:#FFFFFF;}
</style>
<path class="st0" d="M-34.5,305.4l0.4-2.9h2.1c5.5,0,4.5-2.9,3.9-5l-5.2-21.9l-16,21.9c-2.1,3.8-2.1,4.9,1.7,4.9h2l-0.4,2.9h-17.2
	l0.7-2.9h3.9c2.3,0,4.3-2.9,5.9-4.9l18.3-26.3l-11.1-43.9c-0.4-2.2-1.6-5.1-6.7-5.1h-2.1l0.4-3.3h40.5l-0.4,3.3h-3.5
	c-3.3,0-2.9,2.9-2.4,5.1l4.3,16.9l12.7-18.2c1.2-0.9,2-3.8-1.3-3.8h-1.6l0.4-3.3h17.2l-0.8,3.3H8.1c-4.1,0-4.9,2.2-6.3,4.2l-15.6,22
	l11.9,49.1c0.8,2.5,2.1,4.9,5.9,4.9h1.7l-0.5,2.9L-34.5,305.4L-34.5,305.4z M219.6,298.9l2.5-17.1h2.9c0.8,17.1,6.8,20.3,11.5,20.7
	c5.1,0.5,10.1-1.7,13.1-5.7c3.3-4.6,4.3-9.5,2-13.2l-21.5-36.5c-2.9-4.8-3.9-17.8,5.5-23.2c6-3.3,11.5-6.1,19.9-6.1
	c12.3,0,17.3,2,23.3,9.5l-2.5,16.3h-2.9l-0.5-9.6c-1.3-8.3-6.7-14.2-13.5-13.7c-2.9,0.4-5.5,2-7.7,4.8c-1.2,2.2-2.9,5.5,0.5,11.2
	l18.5,30.2c3.1,4.7,3.3,8.3,3.3,12.4c0,12.4-15.2,27.3-35.1,27.6C229.7,306.3,225.9,303.7,219.6,298.9L219.6,298.9z M11.9,299.7
	l10.3-73.2c0.3-2-3.9-4.2-5.2-4.2H14l0.4-3.3H55c13.2,0.8,26.8,3.3,26.4,23.3C80.8,254.7,70,262.5,64.8,265c-4,2.1-9.9,3.8-14.9,3.8
	h-6.7L38.9,298c-0.5,2.5,0.8,4.6,4.3,4.6h4.3l-0.9,2.9h-41l0.4-2.9C9.7,302.1,11.9,301.7,11.9,299.7L11.9,299.7z M49.9,265.4
	c2.1,0,4.3-0.8,4.7-3.6c0.4-1.7,3.7-27.7,5.1-34.4c0-3.8-2.1-5.1-5.5-5.1h-4.7l-5.9,43.1L49.9,265.4
	C49.9,265.4,49.9,265.4,49.9,265.4z M430.5,305.4l-19.9-70.7l-9.3,64.2c-0.4,2.5,0.5,3.6,2.5,3.6h4.7l-0.8,2.9h-18.1v-2.9h4.3
	c3.3,0,3.3-2.5,3.3-3.6l10.5-72.4c0.4-2.9-0.8-4.2-8.8-4.2l0.4-3.3h32.1l16.1,57l7.2-49.6c0-2.9-1.3-4.2-7.2-4.2l0.4-3.3h18.1
	l-0.4,3.3h-2.5c-2.9,0-4.3,1.3-4.7,4.2l-11.9,78.9H430.5L430.5,305.4z M-90.7,260.8h12.3c3.5,0,6.8-0.8,7.1-5.7l0.9-5.1h2.9
	l-3.9,24.9h-2.4l0.8-5.5c0.5-3.3-2-5.7-4.9-5.7h-12.8l-5.5,38.8h18.3c3.6-0.8,9.2-4.2,12.3-20.7h2.9l-3.3,23.6h-65.6l0.8-2.9h3.9
	c3.3,0,4.9-2.1,4.9-2.9l10.7-74.5c0-2.9-1.7-2.9-8.8-2.9l0.4-3.3h63.5l-2.5,17.3h-2.9V234c0-5.1-0.4-11.7-5.3-11.7h-18
	C-85.1,222.3-90.7,260.8-90.7,260.8z M362.6,260.8h11.7c3.9,0,6.8-0.8,7.7-5.7l0.8-5.1h2.9l-3.7,24.9h-2.9l0.8-5.5
	c0.5-3.3-1.7-5.7-4.7-5.7h-13.1l-5.5,38.8h18.1c4.3-0.8,9.2-4.2,12.3-20.7h2.9l-3.7,23.6h-64.7l0.4-2.9h3.9c2.9,0,4.9-2.1,5.5-2.9
	l10.1-74.5c0-2.9-1.7-2.9-8.8-2.9l0.3-3.3h63.1l-2.3,17.3h-2.9V234c0-5.1-0.8-11.7-5.1-11.7h-18L362.6,260.8L362.6,260.8
	L362.6,260.8z M274.3,298.9l2.5-17.1h3.1c0.3,17.1,6.3,20.3,10.8,20.7c5.5,0.5,10.7-1.7,13.6-5.7c2.9-4.6,3.9-9.5,2-13.2l-21.9-36.5
	c-2.5-4.8-3.5-17.8,5.5-23.2c6-3.3,11.5-6.1,20.3-6.1c12,0,17.5,2,22.9,9.5l-2.4,16.3h-3.1l-0.4-9.6c-1.3-8.3-6.3-14.2-13.2-13.7
	c-3.5,0.4-5.9,2-7.7,4.8c-1.1,2.2-3.3,5.5,0,11.2l19.2,30.2c2.9,4.7,3.3,8.3,3.3,12.4c0,12.4-15.7,28.1-35.6,27.6
	C284.1,306.3,280.2,303.7,274.3,298.9L274.3,298.9z M116.6,260.8c1.7,0,3.9-0.4,4.3-3.8l4.3-30.6c0.4-4.2-4.7-4.2-9.7-4.2l-5.5,38.6
	H116.6z M131,305.4c-2.5,0-5.5-1.7-5.5-2.9c-0.4-1.2-6.7-32.6-7.2-33.7c-0.8-1.7-1.7-4.2-3.3-4.2l-5.9-0.9l-4.3,33.9
	c-0.9,3.3,0.8,4.9,4.7,4.9h2.9l-0.9,2.9H68.5l0.4-2.9h4.3c3.5,0,4.7-2.1,5.1-3.3l9.7-72.8c0.4-2-0.4-4.2-4.1-4.2h-3.5V219h41
	c14,0,29.6,3.3,28.3,19c-2,15.8-17.6,21.5-19.3,22c-1.7,0.4-10.5,3.3-11.9,3.3c13.6,2.9,22.4,3.3,24,9.1c2.3,6.5,5.2,22.7,5.2,24.4
	c0.4,0.8,2.5,5.7,5.5,5.7h2.9l-0.9,2.9H131L131,305.4L131,305.4z M154.6,302.6c3.5,0.4,5.5-2.2,5.5-3l10.1-74.5
	c0-2.9-1.1-2.9-8.8-2.9l0.9-3.3h63l-2.4,17.3h-2.9V234c0-5.1-0.5-11.7-5.2-11.7h-18.1l-5.1,38.5h11.9c3.9,0,6.8-0.8,7.6-5.7l0.8-5.1
	h2.9l-3.7,24.9h-2.7l0.5-5.5c0.4-3.3-1.6-5.7-4.7-5.7h-12.7l-5.6,38.8h18.3c3.7-0.8,8.9-4.2,11.9-20.7h2.9l-3.9,23.6h-61.4
	L154.6,302.6L154.6,302.6L154.6,302.6z"/>
<g>
	<path d="M409,287.8l-0.1,0.7l2.7-0.4c-0.3-0.2-0.5-0.4-0.7-0.5C408.9,286,409.1,287.1,409,287.8 M419.3,290.7
		c0.5,0.7,1.8,1.9,2.8,2.7c0,0,0.2-1.3,0.3-2.1C422.4,291.3,419.9,290.8,419.3,290.7 M468.4,262.5c0,5.7-4.5,12.2-14.2,16.3
		c-4.3,1.8-9,2.9-13.7,3.6c0.8,0.2,1.7,0.6,2.5,1c1.7,1.1,2.8,2.1,3.2,3.3c1.4,4.6-2.1,9.4-5.3,13.2c-0.9,1.2-4.3,4.6-4.8,5.1
		c-1.8,1.7-3.7,3.4-5.6,5.1c-2.1,1.8-4.5,3.7-6.9,5.6c-6.9,5.3-14.4,11.6-25.5,17.3c7.6-6.7,13.3-11.9,17.1-15.6
		c0.4-0.4,0.8-0.8,1.3-1.2c0.9-0.9,1.8-1.9,2.7-2.8c1.7-1.9,3.3-3.8,4.7-5.7c0.7-0.8,1.3-1.7,1.9-2.5c2.4-3.3,3.1-5.8,3.1-7.8
		c0-0.6-0.1-1.2-0.2-1.8c-0.2-0.9-0.6-2.3-0.7-2.3c-1.4-1.2-3-1.5-3.5-1.6c-0.6,2.4-1.3,6-1.5,7.2c-0.3,1.6,0.1,1.6,0.8,1.4
		c0.9-0.2,1.4,0.3,0.8,1c-1.9,2.2-2.8,1.7-3,0.1c-0.1-0.8,0.4-5.7,0.4-5.7c-1.8,3.2-5.3,9.4-5.8,11.1c-0.7,2.2,0.2,2,1.1,1.5
		c1-0.5,2.9,0,0.2,2.2c-2.7,2.2-5.2,1.1-3.9-2.8c1.1-3.5,6.1-11.8,6.8-12.8c-0.5-0.4-1.6-1.2-3-3c-1.5-1.9-1.7,0.5-1.9,1.3
		c-0.1,0.8-0.5,4,0.9,3c1.4-1.1,1.7,0.3,0.2,2.1c-1.5,1.9-2.4,1.1-2.4-0.4c0-0.8,0.1-4,0.1-6c-0.3,0.2-0.7,0.3-1,0.5
		c-0.7,0.5-6,18.6-6.4,20.4c-0.4,1.7-3.3-0.2-2.9-3.2c0.4-3,2-2.6,2.2-1.1c0.6-1.2,4.3-13.5,5-18l-2.6,0.4c-0.4,2.7-0.9,5.3-1.3,8
		c-0.3,1.7-1,2.1-2,0.3c-1-1.8-0.1-2.5,0.4-1.8c0.5,0.7,1.1,0.1,1.1-0.4c0.1-0.5,0.5-2.2,0.8-5.8l-1.2,0.2
		c-0.3,0.6-5.6,12.8-7.6,14.4c-2,1.6-3.4-0.9-3-3.6c0.8-4.9,2.3-2.1,2.5-0.1c1.3-1.6,6-9.8,7.2-12.9l2.3-0.4
		c0.2-4.1,0.6-3.8,1.5-3.9c0.9-0.6,2-1.8,2.9-3.4l-1.6-0.5c-0.7,0.9-2.5,3.3-3.1,3.8c-2.7,2.8-5.8,7.1-5.9,7.8c-2.5-1.5-5-2.1-7.8-2
		c-2,0.1-9.2,0-12.3-6.2c-2.3,0.8-6.7,1.1-9.1,1.1c-6.8,0-15.4-1.5-19.7-7.8c-1.2-1.8-1.8-3.8-1.8-5.7c0.3-6.9,6-10.1,9.6-11.3
		c-0.5-1.3-0.7-2.7-0.8-4.1c0-2.7,1.1-4.9,3-6.4c1.9-1.5,4.5-2.2,7.5-2.2c7.1,0,16.5,4.2,24.5,14c0.6-0.1,1.1-0.3,1.6-0.4
		c-1-3.7,2.3-12.3,8.3-11.5h0c1.1,0.2,2.1,1.1,2.3,2.2c0.2,1.4-0.8,2.8-2.3,3c-1.6,0.2-3-1-3-2.6c-4,1.2-4.4,5-3.7,8.4
		c0.6-0.1,1-0.2,1.2-0.3l0.7-1.9c0.3-1.2,1-2.2,5.9-0.8c4.9,1.4,5.5,1.7,4.6,3.6c-1,1.9-0.2,2.3,0.5,2.8c0.3,0.2,0.6,0.7,1,1.4
		c9.5-17,25-26.9,35.8-26.9c3.4,0,6.4,1,8.5,3.1c2.1,2.1,3.3,5.4,3.3,9.7v0.1C466.1,253.8,468.4,258.6,468.4,262.5"/>
	<path class="st1" d="M413.7,274.3l-0.6,0.6c-0.3,1.5-0.9,3.2-2.3,5.2c0.6,0.2,2,0.5,2.8,0.7l4.9-6.8L413.7,274.3z M450.8,250.1
		l-15.2,0.8l-6.9,9.5c6.9-4.4,14.6-7.6,21-8.7L450.8,250.1z M413.3,273.3C413.3,273.3,413.3,273.3,413.3,273.3
		c5.8-5.8,9.3-8.6,12.3-10.8l-10.9,0.6c-0.5,0.7-2.1,3.6-2.4,4.1C413.4,270,413.3,271.8,413.3,273.3 M419.2,313.4
		c-1.3,1.4-2.6,2.7-3.9,4c0.6,1.5,2.9,1.9,4.2,1.5c0,0,2.5-1.8,4.1-3.2C422.2,315.9,420.2,315,419.2,313.4 M426.9,303.5
		c-0.9,1.5-1.8,2.6-3,4.2c1.6,2.5,3.9,2.9,6.6,2.3c1.9-1.6,3.8-3.3,5.6-5C434.3,305.8,430.5,306.6,426.9,303.5 M409.1,284.9
		c0.8-0.5,1.9-1.8,2.9-3.4c0,0-0.8-0.2-1.6-0.5c-0.7,1.1-1.5,2-2.4,3L409.1,284.9z M422.1,282.8c-1.8,3-4,5.3-4.8,5.8
		c2.4,1.3,4.8,1.9,6.8,0.7c1.5-0.9,4.1-3.4,6-6.2C427.3,283.1,424.7,283,422.1,282.8 M427.9,293.4c0.6,1.5,0.8,2.8,0.9,4
		c4.2,1.3,14.3-2.4,17.8-8c0.2-3.1-1.1-4.4-3.5-6C441.7,285.6,434.9,291.4,427.9,293.4 M458.2,249.6c-0.3-2.7-1.2-4.7-2.4-6.2
		L451,250L458.2,249.6z M442.9,240.6c-5.7,1.4-12.4,5-18.4,10.7l11.1-0.6L442.9,240.6z M434.1,273.3l-6.4,8.8
		c3.4,0.1,8.8-0.1,14.6-1l6.2-8.5L434.1,273.3z M442.4,261.6l-14.9,0.8c-0.2,0.1-0.4,0.3-0.6,0.4l-8.1,11.1l15.2-0.8L442.4,261.6z
		 M448.9,252.8l-6.3,8.7l14.4-0.7l4.9-6.8C458.4,252.2,454.6,251.8,448.9,252.8 M467.1,260.3l-10,0.5l-8.4,11.5l14.5-0.8
		C465.7,268.8,468.2,265.1,467.1,260.3 M373.8,277.3l-9.8,6.3c2.9,0.9,11.7,1.5,16.9-0.1c-0.1-0.2-0.8-2.5-0.8-3.7L373.8,277.3z
		 M378.7,258.1c0.3-0.5,0.7-0.8,1.3-1c1.3-0.5,2.7-0.7,4.1-0.5l2.1-1.4c-3.7-2.8-7.3-4.6-10.7-5.5l-6.6,4.3L378.7,258.1z M368.7,254
		l-6.1-2.6c-1.1,1.1-2.8,3.4-1.8,7.8L368.7,254z M386.8,262.6c1,0.9,1.3,1.2,1.3,1.3c0.7-0.3,1.4-0.5,2.1-0.7l-6.8-2.9
		c-0.3,1.1-1.3,1.8-2.5,1.9c-1.2,0.1-2.2-0.7-2.6-1.8l-2,1.3c1.7,0.6,4.5,2,5.8,2.7C384.2,262.6,385.3,261.3,386.8,262.6
		 M361.2,261.4l9.3,3.9l4.7-3.1C372.1,261.2,366.7,259.9,361.2,261.4 M370.6,265.4l-9.9,6.4l13.1,5.3l6.7-4.3l0.1-0.4
		c-1.6-0.6-2.7-1.7-3.2-2.4c-0.2-0.3-0.1-0.9,0.5-1.6L370.6,265.4z M352.3,268.6c-1.4,3.6-0.2,6.5,0.7,8l7.4-4.8L352.3,268.6z
		 M406.1,277.1l-2.1-1.6l0.2,2.5c-1.8,0.3-3.5-1-3.7-2.8c-0.2-1.8,1-3.4,2.8-3.7c1.8-0.3,3.5,1,3.7,2.8
		C407.3,275.4,406.9,276.4,406.1,277.1 M403.9,270.5c-2.3,0-4.2,1.9-4.2,4.2c0,2.3,1.9,4.2,4.2,4.2c2.3,0,4.2-1.9,4.2-4.2
		C408.1,272.4,406.2,270.5,403.9,270.5 M393.4,282.4l-2.2-1.4l0.4,2.4c-1.8,0.4-3.5-0.8-3.9-2.5c-0.4-1.8,0.8-3.5,2.6-3.9
		c1.8-0.4,3.5,0.8,3.9,2.5C394.5,280.6,394.1,281.7,393.4,282.4 M390.7,276c-2.4,0.1-4.2,2.1-4.1,4.5c0.2,2.4,2.2,4.2,4.6,3.9
		C396.8,284,396.3,275.7,390.7,276"/>
	<path class="st0" d="M428.4,260.6l7-9.7l-11.1,0.6c-3.6,3.4-6.8,7.3-9.5,11.5l11-0.6C426.6,261.7,427.5,261.2,428.4,260.6
		 M449.8,251.7c2.8-0.5,5.7-0.5,8.6,0c0-0.7,0-1.3-0.1-2l-7.3,0.4L449.8,251.7z M450.9,250l4.9-6.7c-0.1-0.1-3.4-4.8-12.7-2.7
		l-7.4,10.2L450.9,250z M442.5,261.5l6.3-8.6c-7.6,1.6-14.9,5.2-21.1,9.4L442.5,261.5z M457,260.9l-14.5,0.7l-8.4,11.5l14.4-0.8
		L457,260.9z M442.4,281c11.6-2,17.4-6,20.7-9.2l-14.5,0.8L442.4,281z M427.5,282.1l6.4-8.8l-15.2,0.8l-4.9,6.8
		C415.2,281.2,422.9,282,427.5,282.1 M413.8,274.2l4.9-0.3l8-11C422.3,266.1,418.1,269.8,413.8,274.2 M467.1,260.2
		c-0.6-2.5-2.3-4.8-5.1-6.2l-4.9,6.7L467.1,260.2z M368.8,254l-8,5.2c0.1,0.4,0.2,0.7,0.3,1.1c1.8-0.5,3.6-0.7,5.4-0.7
		c3,0,6.3,0.6,9.8,1.9l2.1-1.3c-0.1-0.2-0.1-0.4-0.1-0.7c0-0.5,0.1-1,0.4-1.4L368.8,254z M375.4,249.7c-1.9-0.5-8.5-2-12.7,1.6
		l6.2,2.6L375.4,249.7z M392.1,262.6c0.4-0.1,0.9-0.2,1.3-0.4c-2.8-3.3-4.9-5.2-7.2-6.9l-2.1,1.3
		C387.4,257.2,390.4,259.6,392.1,262.6 M390.3,263c-1.9-3.2-3.6-5.2-7-4.8c0.2,0.3,0.5,1,0.2,1.9L390.3,263z M360.5,271.9l-7.5,4.8
		c2.3,3.7,6.6,5.8,10.8,6.8l9.8-6.3L360.5,271.9L360.5,271.9z M370.5,265.4l-9.4-4c-2.1,0.6-6.6,2.4-8.7,7.1l8.2,3.3L370.5,265.4z
		 M373.9,277.2l6.1,2.5c-0.2-1.9-0.1-4.1,0.4-6.7L373.9,277.2z M375.4,262.3l-4.7,3.1l7.2,3c0.7-1,2.4-2.4,3.5-3.3
		C379.4,263.9,376.9,262.8,375.4,262.3"/>
	<path class="st2" d="M386.5,280.2c0-2.2,1.6-4.1,3.9-4.4c2.3-0.2,4,1,4.7,2.6c-0.1-0.9-0.2-1.8-0.5-2.7c-1.2-4.2-4.4-7-7.4-6.1
		c-3.1,0.9-4.4,5-3.2,9.3c0.7,2.6,2.4,4.1,4.3,4.9C387.2,283,386.5,281.6,386.5,280.2 M404.2,264.2c-3.2-0.3-6,3.4-5.9,7.8
		c0.1,2.5,0.8,4.3,2,5.4c-0.6-0.7-0.9-1.7-0.9-2.6c0-2.1,1.7-4.3,4.3-4.4c2.4-0.1,4.4,1.6,4.7,3.8c0.1,0.6,0.1,1.2-0.1,1.7
		c0.4-0.9,0.6-2,0.7-3.4C409.3,268.1,407.3,264.4,404.2,264.2 M392.7,286.2c7.6,5.9,9,1.8,9.7-4.2
		C399.2,286.7,397.2,286.3,392.7,286.2"/>
</g>
</svg>
