<?xml version="1.0" encoding="utf-8"?>
<!-- Generator: Adobe Illustrator 22.0.1, SVG Export Plug-In . SVG Version: 6.00 Build 0)  -->
<svg version="1.1" id="Lager_1" xmlns="http://www.w3.org/2000/svg" xmlns:xlink="http://www.w3.org/1999/xlink" x="0px" y="0px"
	 width="512px" height="512px" viewBox="0 0 512 512" style="enable-background:new 0 0 512 512;" xml:space="preserve">
<style type="text/css">
	.st0{fill:#C23C40;}
</style>
<path class="st0" d="M192.7,0h-3.5c-0.1,0-0.4,0.1-0.6,0.3c2.8,5.1,9.8,10.6,8.1,17.3c-10.1,3.7-20.7-0.1-30.6,0.7l-0.1,11.4
	c-4-0.4-8.2-5.6-11.7-6.6c-8.5,2.6-16.3,5.6-24.9,7.6c-8.2-0.1-18.5-2.9-25.5-0.6c-3.4,0.7-6.2-0.4-4.1,7c-3.4,2.8-5.7-3.8-9.4-2.3
	c-6.3,2.9-10.8,8.1-14.8,13.3c-1.9,2.3,0.4,4.7,1.6,6.9c7.5,0.4,15.8,1,23.2,1.5c1.9,1,4.7,0.3,6.4,1.5c-8.4,1.5-22.1,2.3-26.2,12
	c2.6,6.3,8.1,13.2,14.9,14.7c4.2,0,7.8-5.4,10.4-8.2c6.4-1.9,7.3-3.5,32.7,8.1c11.7,2.8,26.4-7.3,32.5-7.6l-21.7,12.9h0.1
	c-17.6,11.3-35.5,24.3-46.3,39.7c-9.1,12.9-17.7,35.6-8.8,65.9c0.4,3.8,6,9.2,6.2,12.7c-14.9-6-36.2-13.3-51.6-18.3
	c-2.2-1.3-4.8-0.1-6.9,0.4c-3.8,4-10.6,7.6-12,12.5c1.3,10,4.7,20.7,8.1,30c11,17.9,13.6,39.6,16.7,60.8c1.3,7.6,14.5,6.3,18,12.6
	c4.1,15.8,14.2,34.9,31.7,35.9v0.6l1-0.3V303c-3.2,1-17.3,1-20.1,0.1l1.9-12.6c-1.9-5.1-8.4-7.5-12.3-11c-6.4-15.2-7.2-35-9.8-51.9
	c15.7,12.3,30.9,25.6,48.4,33.9c6.9,2.1,9.5-0.3,14.9-4.2c7.3,9.2,16.3,18.9,24.8,26.7c-3.5,3.8-9.8,11.3-16,8.9
	c-6.7-1.8-10.4-10-12.7-15.8c-2.8,2.1-5.6,2.3-8.1,4.2c0.1,8.2,6.4,15.5,9.4,22.7c6.4,9.2,13,10.1,20.8,10.4
	c1.2,4.2-2.6,6.7-5.7,9.1c2.8,2.8,7,5.4,10.3,7.3c14.1-3.7,15.8-19.6,25.5-28.6c34,23.9,54.5,23.9,89.1,25.4
	c-2.6,21.7-3.8,38.1,5,52c11.6,18.5,25.6,23.9,57.3,36.9c-9.7,14.4-24.2,31.2-33.6,41.8c-7.5,7.8-9.4,11.1-18.2,19.9
	c-0.9,2.6,4.4,6.3,4.2,8.6l-13.9,2.1c-10.8,6.3-17.7,12.5-17.7,22.9L292,512l1.9-2.1c1-3.8,2.5-8.5,5.3-11.9c0-2.3-7.9-5.6-6.9-7.8
	c2.3-0.6,11.1-2.8,11.3-2.8c2.3-2.9,2.6-7.2,4.7-9.7c5.9-9.5,7.8-13.3,15.7-21.1c14.9-13.3,33.3-34.6,33.3-34.6
	c3.5-4.2,8.6-7.3,5.1-12c-17.4-6.7-27.3-23.3-24.6-32.5c5-16.3,20.1-20.5,29.2-33c14.5-19.6,13.6-41,5.6-64.3
	c2.3-6.3,15.7-9.8,19-8.1c22.4,17.6,1.6,49.1,1.2,61c-3.4,16,6,46.6,27,53.2c13.5,4,24.5,4.2,38.4,2.9c4.1-1.8,20.5-4.8,23.9-8.4
	l-14.4-2.8c-14.7-2.9-22.1-10.6-24.9-22.1c5.6,6.3,16.9,14.2,26.8,5.6c2.3-1.6,8.4-5.3,10.6-9.1c-6.3-0.1-11.4,1.8-21.4-5.4
	c-5.4-5.4-11.9-8.4-14.1-50.4c0.4,0.7,0-41.5-15.5-50.1c-17.3-10.3-43.1,4-48.7,7.8c-5.1,3.2-10.4,12-14.4,12.7
	c-13-17.1-30.9-17.6-48.9-23.4c15.4-4.8,34.4-9.7,49.4-15.5c2.5-1.2,3.2-0.3,2.2-4.5c-2.1-8.1-5.6-16.9-7.8-25.1
	c5.6-1.6,14.7-3.5,15.1-10.6c-3.1-18.6-10.6-36.5-17.9-52.6c-1.6-4.1-13.8-11.7-21.1-14.8c-9.7-0.7,0.4-10.1-1.8-11.7
	c3.5-5.6,10.7-4,16.1-11.1c2.8,2.3,8.1,7,10.4,5.1c1.5-1.3-1-8.2-3.5-12.6c0,0,9.1-6.7,16.7-10.1c5.6-2.3,10.8-2.9,10.7-2.9
	c-1.5-7.6-4.4-14.8-8.8-21.1c-4.4-5.7-14.5-16.9-17.9-14.4c-1.9,1.2-2.2,3.4-4.5,6.6c-5.1,6.7-15.7,16-15.7,16s-9.7-9.5-13-7.2
	c-2.8,2.1,2.2,8.8,4.1,12.3c-3.5,1.9-8.6,4.5-14.8,5c-3.8,1.6-1.3,2.9-0.6,5c-0.4,3.4-1.8,0.7-2.9,2.1c-2.9,2.5,2.1,0.9-3.2,4.4
	c-5.3,4.7-4.1,8.2-1.3,11.1c5.3,3.4,8.2,6.3,3.7,12c-4.4-2.6-7-3.2-11.6-4.5c-8.6,0.7-19.6,1-27.3,2.3c3.7-4.8,9.5-11.7,12.5-17
	c-0.3-2.3-1.5-4.4-3.2-5.9c2.9-2.9,6.4-5.6,10.8-5.9c-0.4,0.1,6.6,2.6,8.1-0.7c2.5,1.8,4.2,3.4,4.2,6.4c1.8-1.9,3.2-4.4,5.4-6.3
	c-5.6-0.7-6.6-5-11.1-8.5c6.3-2.2,11.1-8.6,12-14.7c0.1-3.1-0.1-6.2-1-9.1c-2.9-5.9-8.5-7.9-14.7-8.6c-4.8,0.9-11.7,2.6-14.2,9.5
	v-3.7c0.6-5.1,2.2-7.5,6.4-13c4.4-5,16-11.4,15.4-12c-8.6-5.4-26.2-12.9-37.5-16.7c-1.3,3.4-2.3,5-0.3,15.4
	c1.8,8.9-5.4,31.1,9.4,43.8c-0.4,2.6-2.9,5.7-2.5,8.6c2.1,3.4-1.9,5.1-3.2,7.9l-5.9-1.6c-6.4,9.2-12,18.9-18.5,28
	c-2.1,5.1-5.9,15.2-2.5,19.5c4.4,7.6,29.9,7.3,38.8,10.3c-10.1,9.2-22.6,29.6-24.6,32.8l0.1-0.3c-4.8,9.4-16.7,19.3-16.7,19.3
	s2.8,5.4,13.3,7c-3.7,0.9-13.3,6.6-18.3,7.2c-2.9-1.8-2.6-1.5-3.2-2.1c-5.4-4.7-8.8-6-13.6-11.4c-3.8-5-18.5-15.7-16.3-32.5
	c5.7,3.5,13.5-3.1,13.5-3.1c-11.9-6.2-11.7-24.9-11-21.4c0,0,8.6,5.3,14.4,5.3c0,0,5.9-1.5,10.8-6.4c-11.9-9.1-12.5-18.9-11.4-21.8
	c11.3,3.2,22-10.3,22-10.3c-12.9,2.8-11.9-15.8-11.3-12.9c0,0,9.2,1.8,17.1-8.8c-19.9-1.5-16.7-23.6-17.6-28.9
	c5.4-6.2,15.2-8.1,21.7-12.2l2.3-2.8c-5.6-0.7-13.2,0.7-18.9,0.1l11.6-10V19c-10.6,0.7-21.2,1.2-31.1,1c0.4-6.6-1-13.2-4-19.2h-5.9
	c2.2,4,3.1,9.2,1.3,13.6c-1.5-3.2-3.2-6.3-5.3-9.1C197.4,2.9,195.2,0.7,192.7,0L192.7,0z M217,215.6l-3.8,1.5l1.5,7.6l15.1-5.4
	l25.8-9.5l12.2-5.7l-8.9-3.7l-2.1-0.6L217,215.6L217,215.6z M290.9,183.3l5.3,21.1c3.2-1,12-2.8,12-2.8s0.6-7.5,8.1-8.8l-1.9-3.1
	c11.4-8.1,21.7-11.9,34-17.1c-0.4-2.1-0.7-5.4-2.2-6.7c-2.6,0.3-2.5,0.7-5.3,1c0,0-3.8-4.5-4.4-7.3c-2.2,3.2-5.3,5.6-7.5,8.9
	c0,0-31.4,5.4-38.4,7.8v-0.1C289.6,177.9,290.3,181.9,290.9,183.3L290.9,183.3z M296.6,61.3c0,0,3.8-2.1,4.5-3.1
	c1.8-2.3,2.5-5.3,2.1-8.1c-0.7-3.5-4.4-6.4-9.1-6.4c-4.7,0.7-8.4,3.5-9.4,7.9c4.5-0.6,4,1.9,4,1.9s2.3-0.1,3.5,0.3l1.9,1.8l-0.4,2.2
	c0.3,0,0.4-0.1,0.7-0.1C296.7,57.4,298.2,60.1,296.6,61.3z M303.2,486.6L303.2,486.6z M177.5,333.1c0,0-3.5,0.6-5,0.7l-2.8-0.1
	l6.6-2.6c-0.9-2.5-3.5-5.6-4.2-7.8c2.1,1.3,5.1,4.2,6.6,5.3l3.5-6.4c0.3,1.6-0.1,5.1-0.1,7.3c2.5-0.4,5.1-1.3,8.1-0.9l-7.5,3.1
	l4.1,7.2c-2.5-1-4.1-4-6.3-4.7c-1.3,2.1-2.6,5.6-4.7,6.9C176,338.4,177.5,333.1,177.5,333.1L177.5,333.1z"/>
</svg>
