<?xml version="1.0" encoding="utf-8"?>
<!-- Generator: Adobe Illustrator 22.0.1, SVG Export Plug-In . SVG Version: 6.00 Build 0)  -->
<svg version="1.1"
	 id="svg2" inkscape:output_extension="org.inkscape.output.svg.inkscape" inkscape:version="0.45.1" sodipodi:docbase="C:\Users\Simon\Pictures" sodipodi:docname="SR P1.svg" sodipodi:version="0.32" xmlns:cc="http://web.resource.org/cc/" xmlns:dc="http://purl.org/dc/elements/1.1/" xmlns:inkscape="http://www.inkscape.org/namespaces/inkscape" xmlns:rdf="http://www.w3.org/1999/02/22-rdf-syntax-ns#" xmlns:sodipodi="http://sodipodi.sourceforge.net/DTD/sodipodi-0.dtd" xmlns:svg="http://www.w3.org/2000/svg"
	 xmlns="http://www.w3.org/2000/svg" xmlns:xlink="http://www.w3.org/1999/xlink" x="0px" y="0px" width="512px" height="512px"
	 viewBox="0 0 512 512" style="enable-background:new 0 0 512 512;" xml:space="preserve">
<style type="text/css">
	.st0{fill:#1B3281;}
	.st1{fill:none;}
</style>
<g>
	<path id="path2823" class="st0" d="M383.8,257.5c0,0,7.5-4.5,15.1-16.6c7.5-13.6,10.6-42.2,6-69.4c-3-18.1-13.6-31.7-25.6-39.2
		c-16.6-12.1-33.2-16.6-64.8-19.6h101c22.6,0,39.2,3,51.3,9c27.1,13.6,39.2,46.7,34.7,75.4c-4.5,25.6-19.6,43.7-40.7,52.8
		C445.6,256,435.1,257.5,383.8,257.5"/>
	<path id="path2825" class="st0" d="M260.2,253L138,112.7h122.1L260.2,253"/>
	<path id="path2829" class="st0" d="M376.3,257.5L512,399.3H388.3L263.2,257.5H376.3"/>
	<path id="path2831" class="st0" d="M127.5,257.5c-6,0-58.8,0-58.8,0c-28.7,0-45.2-10.6-58.8-31.7c-12.1-19.6-13.6-54.3-1.5-75.4
		c10.6-19.6,28.7-37.7,67.9-37.7c15.1,0,54.3,0,54.3,0s-4.5,1.5-7.5,1.5c-15.1,4.5-21.1,15.1-25.6,30.2c-6,18.1-4.5,52.8-3,69.4
		c3,15.1,7.5,28.7,13.6,34.7C110.9,253,119.9,256,127.5,257.5"/>
	<path id="path2833" class="st0" d="M267.7,326.9c0,34.7-18.1,58.8-43.7,67.9c-12.1,4.5-21.1,4.5-31.7,4.5c-25.6,0-57.3,0-57.3,0
		c6-1.5,15.1-4.5,19.6-9c10.6-9,13.6-16.6,16.6-30.2c3-19.6,3-43.7,1.5-58.8c-1.5-7.5-4.5-24.1-13.6-31.7
		c-7.5-6-15.1-10.6-24.1-12.1c0,0,48.3,0,66.4,0C230,257.5,267.7,275.6,267.7,326.9"/>
	<path id="path2835" class="st0" d="M3.8,399.3h123.7L3.8,274.1V399.3"/>
</g>
<rect x="0" class="st1" width="512" height="512"/>
</svg>
