<?xml version="1.0" encoding="utf-8"?>
<!-- Generator: Adobe Illustrator 22.0.1, SVG Export Plug-In . SVG Version: 6.00 Build 0)  -->
<svg version="1.1" id="layer" xmlns="http://www.w3.org/2000/svg" xmlns:xlink="http://www.w3.org/1999/xlink" x="0px" y="0px"
	 width="512px" height="512px" viewBox="0 0 512 512" style="enable-background:new 0 0 512 512;" xml:space="preserve">
<style type="text/css">
	.st0{fill:none;}
</style>
<g id="g3">
	<g id="g5">
		<g id="g7">
			<g id="g9">
				<path id="path11" d="M150.7,299.3c0-42.2-28.9-54.5-57.2-63.1l-20.8-5.9c-16.6-4.8-36.3-12.8-36.3-35.3c0-25.7,19.8-39,43.8-39
					c25.6,0,40.1,9.1,57.2,33.1l-4.3-41.2c-16.6-6.9-34.7-9.1-51.8-9.1c-41.7,0-75.9,19.8-75.9,65.2c0,44.9,28.3,55.6,56.7,63.6
					l20.3,5.9c19.2,5.9,35.8,13.9,35.8,38.5c0,26.2-21.4,43.3-46,43.3c-33.1,0-53.4-11.8-72.1-42.2v48.6
					c21.4,7.5,43.3,11.2,65.2,11.2C112.2,373,150.7,350.6,150.7,299.3 M311.1,198.3h-45.4c8,3.2,10.1,9.6,7.5,16l-36.3,86.6
					L202,211.6c-2.1-5.9,1.6-10.7,8-13.4h-59.3c6.4,2.7,11.2,9.6,13.9,16L228.2,373l66.3-158.7C297.1,207.4,304.1,201.5,311.1,198.3
					 M512,256c0-69.5-47-112.2-110.6-112.2H310c9.1,4.3,17.1,12.3,17.1,23v179c0,10.7-8,18.7-17.1,22.4h93
					C460.2,368.2,512,322.3,512,256 M473.5,256c0,56.1-20.3,94.6-81.2,94.6c-18.2,0-29.4-4.3-29.4-18.2V164.1
					c9.6-2.7,20.3-3.2,29.9-3.2C448.4,160.9,473.5,205.8,473.5,256"/>
			</g>
		</g>
	</g>
</g>
<rect x="0" class="st0" width="512" height="512"/>
</svg>
